<?xml version="1.0" encoding="UTF-8"?>
<svg width="810px" height="684px" viewBox="0 0 810 684" version="1.1" xmlns="http://www.w3.org/2000/svg" xmlns:xlink="http://www.w3.org/1999/xlink">
    <title>Shape</title>
    <g id="Page-2" stroke="none" stroke-width="1" fill="none" fill-rule="evenodd">
        <path d="M488.159476,683.410004 C477.87183,682.917679 455.3673,680.52498 438.202664,678.348904 C427.338909,676.971625 411.489882,673.961058 388.614997,668.17624 C366.829392,662.514503 353.273905,658.20666 347.948535,655.375791 C346.738223,654.637304 342.381102,652.668004 338.387075,650.821786 C324.105401,644.175399 312.486411,635.805875 300.62536,623.497752 C295.29999,617.836015 290.458744,613.282009 289.97462,613.282009 C289.611526,613.282009 285.980592,616.605202 281.986565,620.543802 C271.093762,631.621113 265.163237,634.698144 254.87559,634.698144 C247.734753,634.821225 245.677224,634.3289 241.441134,631.498032 C235.147515,627.436351 228.127709,618.820665 227.038428,613.897415 C226.554304,611.805034 225.10193,606.635622 223.649557,602.204698 C221.470996,594.942905 221.228934,590.3889 220.744809,549.279767 C220.502747,524.540439 220.018622,503.124304 219.77656,501.64733 C219.171404,499.308786 218.68728,499.062624 216.145626,500.047274 C214.572221,500.66268 210.578194,503.124304 207.310353,505.339767 C204.042512,507.67831 199.806423,510.509179 197.869924,511.61691 C195.933426,512.724641 190.0029,516.047834 184.67753,519.124865 C169.7907,527.61747 150.568535,537.686746 142.368676,540.787162 C133.224773,544.244514 129.382035,545.378092 122.488101,547.439703 C109.374377,551.361071 103.468058,552.006017 96.2449195,552.234948 C87.1615327,552.521727 73.7960642,552.183254 65.7329698,549.566547 C54.1333456,545.801492 46.5810026,540.787162 38.108823,535.125425 C30.9679859,530.325257 19.3489967,517.894053 15.7180626,511.370747 C14.3867201,508.909122 12.353397,505.57239 11.6030039,503.739711 C0.757403692,477.241552 2.25576917,477.327709 1.16648894,472.035216 C-1.01207154,461.204067 -0.0159852758,445.768449 3.1308243,424.967721 C5.30938477,409.705648 11.4819728,389.028 18.2597165,373.889009 C19.4700278,371.181221 21.0434326,367.611866 21.7696195,365.888728 C22.4958063,364.165591 23.5850865,361.950129 24.1902422,360.965479 C24.7953979,359.980829 26.1267404,357.519204 27.0949895,355.426823 C30.7259236,347.303462 38.4719164,334.626095 50.9381236,316.040828 C60.6206145,301.763405 85.9161223,274.685534 96.4458312,267.423741 C114.842564,254.623293 116.779062,253.515561 127.792896,248.961556 C138.395223,246.229152 138.955598,245.463587 154.419746,244.776794 C161.169653,244.477706 170.328079,246.824866 177.920362,249.659426 C182.646628,251.424411 190.863432,257.159997 196.672926,262.45249 C200.30386,265.775683 206.612003,273.750116 209.531274,284.132018 C215.534419,305.481689 214.581904,306.317411 215.65424,317.035325 C217.162288,332.116468 214.814284,343.364862 212.030567,349.272762 C210.457163,352.719036 207.552415,357.026879 205.373855,358.996179 C197.990955,366.01181 184.798561,365.765647 177.294631,358.380773 C171.243074,352.472874 170.395856,347.303462 171.243074,325.887327 C172.090292,304.594274 171.364105,300.409512 165.917704,294.501612 C162.165739,290.439932 161.560583,290.193769 154.540777,290.316851 C143.16385,290.439932 131.907954,296.840156 114.116377,313.579204 C106.612447,320.594834 89.6680875,341.395563 83.8585929,350.503574 C81.8010636,353.949849 79.501472,357.273042 78.8963163,358.011529 C76.2336313,361.211641 60.6835507,388.986153 54.107929,406.259373 C49.9117795,417.282528 48.3807356,419.453681 45.128629,438.504195 C44.701389,441.003975 44.7776387,444.161008 44.5053186,448.89102 C44.0804993,456.275894 45.3936872,464.76973 50.2119367,474.000823 C55.43322,484.004866 60.8626768,491.185425 68.7297007,495.862512 C73.9340397,498.816461 75.991569,499.308786 87.9736516,499.801111 C103.949762,500.416517 112.30091,498.69338 130.213519,491.185425 C142.07457,486.139094 161.560583,475.923352 171.84823,469.276965 C193.996928,454.999542 219.171404,436.045032 226.554304,428.290914 C229.459051,425.090802 231.516581,421.644527 232.000705,418.93674 C232.363798,416.475116 233.695141,410.690298 234.905452,405.890129 C236.236795,401.213043 238.052262,393.458925 239.020511,388.658757 C241.562165,376.350633 243.256601,368.965759 245.798255,358.503854 C247.129597,353.457524 248.945064,345.949568 249.913313,341.887888 C252.69703,330.318252 255.238683,320.471753 258.0224,311.117579 C263.831894,290.563013 266.828625,281.14976 268.374193,275.201244 C269.792678,269.738899 271.947032,263.184823 272.891075,260.122562 C273.593055,257.841867 278.062735,244.332471 278.803446,242.146548 C280.6056,236.824515 283.693104,227.550344 286.146405,220.692258 C287.376081,217.253368 288.403636,214.294495 290.756481,208.46783 C292.291156,204.669543 292.884208,202.495928 293.842775,199.647829 C296.057645,193.076521 297.978409,189.328698 299.412628,185.406099 C300.668931,181.970902 301.694065,179.915445 304.800934,171.188986 C305.734084,168.563663 305.977357,168.465198 307.550762,164.895842 C309.003135,161.203405 312.244349,153.696681 314.180847,149.265756 C315.996314,144.834832 318.537968,138.803851 319.869311,135.72682 C321.200653,132.649789 323.742307,127.111134 325.315712,123.418697 C327.010148,119.72626 328.825615,115.78766 329.430771,114.803011 C330.035926,113.818361 330.883144,112.095223 331.246238,111.110573 C333.908923,104.464187 345.648943,80.9556711 353.273905,67.4167353 C368.402797,40.2157826 375.785696,29.384634 386.920561,17.814998 C391.761806,12.7686673 393.790288,11.3655413 396.475969,9.25223649 C399.834583,6.60845158 402.836155,5.11793783 405.636816,3.75173613 C418.515739,-2.5340225 432.5493,0.337462692 437.995701,3.29141231 C444.773445,6.86076811 451.430157,14.7379671 455.787278,24.3383034 C459.418212,32.2155024 460.451818,38.4311047 461.35471,48.9545502 C462.928115,67.2936541 461.233679,104.956512 458.08687,116.649229 C457.118621,120.71091 455.787278,127.111134 455.182122,130.803571 C454.576967,134.496008 453.003562,141.142395 451.672219,145.573319 C450.340877,150.004243 447.799223,158.61993 446.104787,164.65091 C444.28932,170.804972 441.989728,177.697521 441.021479,180.036065 C439.932199,182.374608 438.358794,186.805533 437.511576,189.882563 C436.664358,192.959594 434.485798,199.359818 432.791362,204.036905 C430.975895,208.837073 428.676303,214.868054 427.708054,217.575841 C426.739805,220.283628 425.1664,224.222228 424.319182,226.191527 C423.471964,228.283908 420.93031,234.068726 418.872781,239.115057 C411.974006,255.731024 397.813363,285.639764 390.430464,298.809456 C387.525717,304.22503 380.263848,318.379372 379.053537,320.22559 C377.843226,321.948728 374.454354,327.364302 371.428575,332.041389 C351.7005,363.304022 348.674721,367.734947 328.825615,392.843519 C317.69075,406.874779 307.161041,418.813659 292.637305,433.952651 C285.980592,440.722119 279.929035,447.614668 278.960786,449.091643 C275.571915,454.261054 272.304074,472.230915 271.093762,492.046993 C270.488607,502.878142 269.399327,517.524809 268.794171,524.66352 C266.978704,544.233437 266.978704,544.356518 270.972731,544.356518 C273.635416,544.356518 274.845728,543.371868 276.419132,540.417918 C277.629444,538.202456 280.171098,533.894613 282.107596,530.817582 C288.447207,520.743383 288.551294,520.574762 294.21071,511.370747 C295.707865,508.9362 296.199251,507.972474 298.615033,504.180341 C301.079227,500.311898 301.956702,498.816461 303.167014,496.847162 C304.498356,494.877862 309.199206,487.249287 311.498797,483.803012 C314.686757,479.024999 320.958591,470.138534 324.347463,466.076853 C326.041899,463.984472 328.583553,460.661279 329.914895,458.81506 C331.246238,456.84576 333.787892,453.399486 335.603359,450.937861 C337.418826,448.476236 339.718417,445.399206 340.686666,444.045312 C360.17268,417.582847 401.444297,372.658196 414.636691,363.427104 C419.719999,359.857748 423.743074,358.974025 427.96222,357.773983 C431.612519,356.736408 440.853246,356.863181 447.920254,364.165591 C454.350638,370.809516 457.118621,381.766208 454.092842,392.720437 C452.7615,397.028281 444.28932,410.444135 440.174261,414.628897 C438.721888,415.982791 434.122704,421.152202 429.765584,426.198533 C425.408463,431.121782 420.93031,436.291194 419.719999,437.522007 C418.630719,438.752819 411.489882,446.506937 404.106982,454.876461 C396.603052,463.122903 388.614997,471.984752 386.194374,474.692539 C381.47416,479.985032 377.843226,483.923632 371.549606,490.939262 C364.650832,498.69338 355.452465,511.124585 346.254099,525.278927 C343.712445,529.340607 341.04976,533.279207 340.565635,533.894613 C339.234293,535.494669 332.698611,549.402849 329.672833,556.664641 C323.742307,571.434389 329.914895,587.558031 345.406881,597.650692 C356.299683,604.789404 357.631026,605.527891 365.619081,608.728003 C382.926533,615.620553 396.482021,619.805314 413.42638,623.251589 C416.815252,623.990076 423.350933,625.34397 427.950116,626.32862 C432.670331,627.31327 444.652413,628.913326 454.576967,629.897976 C464.622551,630.882626 480.239199,630.464149 485.927662,631.325718 C518.915909,633.393483 540.845541,633.563335 576.304033,630.739851 C587.316656,629.863513 600.419487,628.29792 604.050421,627.31327 C607.802387,626.451701 616.153535,625.097808 622.810248,624.236239 C629.46696,623.497752 635.760579,622.39002 636.84986,621.774614 C637.93914,621.282289 642.901416,620.174558 647.742662,619.436071 C652.704939,618.697583 659.119589,617.34369 662.145367,616.35904 C665.171146,615.37439 670.98064,614.020496 675.095699,613.282009 C679.210758,612.543522 684.415097,611.189628 686.593657,610.328059 C688.772217,609.34341 693.371401,608.235678 696.639241,607.743354 C700.028113,607.251029 703.780079,606.266379 705.111421,605.527891 C706.442764,604.789404 711.40504,603.189348 716.004223,602.081617 C723.992278,599.989236 730.770022,598.019936 756.307592,590.3889 C786.565376,581.403969 796.610961,581.527051 805.325203,591.004306 C809.803355,595.927555 810.408511,598.266099 809.803355,607.743354 C809.31923,615.866715 796.974054,627.31327 785.960221,630.021057 C784.144754,630.513382 781.240006,631.621113 779.545571,632.482682 C776.035668,634.451981 764.779772,638.513662 755.339343,641.098368 C751.708409,642.206099 748.077475,643.559993 747.351288,644.175399 C746.746132,644.667724 742.873136,646.021617 738.879108,647.006267 C735.006112,647.990917 729.559711,649.714054 726.897026,650.698704 C724.234341,651.683354 721.087531,652.544923 719.998251,652.668004 C718.78794,652.668004 714.672881,653.775735 710.920916,655.006547 C707.047919,656.360441 701.480487,657.837416 698.57574,658.20666 C695.549961,658.698985 690.345622,660.052878 687.077782,661.28369 C683.68891,662.391422 678.242509,663.745315 674.853637,664.23764 C671.585796,664.729965 666.381457,665.837696 663.355679,666.822346 C660.3299,667.806996 653.431125,669.160889 647.984724,669.776296 C642.417292,670.514783 635.034392,671.868677 631.645521,672.976408 C628.135618,673.961058 618.937251,675.314951 611.31229,676.053439 C603.687328,676.668845 595.457211,677.776576 593.157619,678.515063 C583.354097,681.592094 531.609655,685.502385 488.159476,683.410004 Z M304.813998,341.506692 C306.23024,340.184296 311.190695,335.86 315.322805,330.624042 C330.883437,310.905103 335.520489,299.788443 350.909201,271.634201 C356.078846,262.249454 365.02594,244.534219 371.397828,229.29924 C372.84052,226.008484 374.494806,222.879829 376.301778,218.2228 C377.305651,215.634073 378.067873,214.071573 380.747673,207.134173 C383.296428,200.538036 383.249541,200.588007 384.460199,197.289939 C385.667252,194.001621 387.938289,187.415234 389.741653,182.661921 C399.840496,155.238957 407.667098,126.508224 411.522692,108.716205 C414.862523,93.3057186 414.158009,95.7250334 415.283308,87.398203 C416.0828,81.4772805 416.390574,76.8799731 416.191002,72.6044284 C415.938531,67.1978389 415.469656,67.2417157 411.862927,71.3856301 C406.93373,77.1139824 403.327001,82.8423347 396.594439,95.7615973 C384.451784,118.796886 377.118101,134.031866 369.664193,151.582562 C368.341726,154.629558 366.418137,159.260992 365.09567,161.942348 C362.450735,167.91446 357.160865,180.711843 349.105836,200.943896 C347.422696,204.965931 344.657537,212.400601 342.854172,217.397674 C341.050807,222.394747 338.766545,228.488739 337.804751,230.804456 C336.722732,233.120173 335.159816,237.507847 334.318246,240.554843 C333.476676,243.601839 331.072189,250.670869 329.028376,256.399222 C326.984563,262.127574 324.513953,269.600027 323.321328,272.937097 C322.165972,276.166912 320.609068,280.87513 320.011553,282.725266 C319.320263,284.864257 318.648209,286.911839 318.20939,288.128199 C317.67319,289.616352 316.378374,294.698741 309.792486,316.72974 C308.590243,320.751775 306.907103,327.089527 306.185757,330.745922 C304.743065,337.693072 302.350601,343.807784 304.813998,341.506692 Z" id="Shape" fill="#FFD676"></path>
    </g>
</svg>